<svg xmlns="http://www.w3.org/2000/svg" xmlns:xlink="http://www.w3.org/1999/xlink" contentStyleType="text/css" height="281px" preserveAspectRatio="none" style="width:508px;height:281px;background:#FFFFFF;" version="1.1" viewBox="0 0 508 281" width="508px" zoomAndPan="magnify"><defs/><g><!--cluster b40a472961be91eb055e3109a0f417e4--><g id="cluster_b40a472961be91eb055e3109a0f417e4"><path d="M395.5,6 L488.5,6 A3.75,3.75 0 0 1 491,8.5 L498,28.2969 L498.5,28.2969 A2.5,2.5 0 0 1 501,30.7969 L501,133.39 A2.5,2.5 0 0 1 498.5,135.89 L395.5,135.89 A2.5,2.5 0 0 1 393,133.39 L393,8.5 A2.5,2.5 0 0 1 395.5,6 " fill="none" style="stroke:#000000;stroke-width:1.5;"/><line style="stroke:#000000;stroke-width:1.5;" x1="393" x2="498" y1="28.2969" y2="28.2969"/><text fill="#000000" font-family="sans-serif" font-size="14" font-weight="bold" lengthAdjust="spacing" textLength="92" x="397" y="20.9951">mailsender/</text></g><!--cluster 77fec0b1a684ec3b54c95b512100bc43--><g id="cluster_77fec0b1a684ec3b54c95b512100bc43"><path d="M8.5,6 L37.5,6 A3.75,3.75 0 0 1 40,8.5 L47,28.2969 L366.5,28.2969 A2.5,2.5 0 0 1 369,30.7969 L369,272.28 A2.5,2.5 0 0 1 366.5,274.78 L8.5,274.78 A2.5,2.5 0 0 1 6,272.28 L6,8.5 A2.5,2.5 0 0 1 8.5,6 " fill="none" style="stroke:#000000;stroke-width:1.5;"/><line style="stroke:#000000;stroke-width:1.5;" x1="6" x2="47" y1="28.2969" y2="28.2969"/><text fill="#000000" font-family="sans-serif" font-size="14" font-weight="bold" lengthAdjust="spacing" textLength="28" x="10" y="20.9951">api/</text></g><!--entity c17478706cbcaa91f216584e2e46c307--><g id="elem_c17478706cbcaa91f216584e2e46c307"><rect fill="#F1F1F1" height="78.8906" rx="2.5" ry="2.5" style="stroke:#181818;stroke-width:0.5;" width="70" x="412" y="41"/><rect fill="#F1F1F1" height="10" style="stroke:#181818;stroke-width:0.5;" width="15" x="462" y="46"/><rect fill="#F1F1F1" height="2" style="stroke:#181818;stroke-width:0.5;" width="4" x="460" y="48"/><rect fill="#F1F1F1" height="2" style="stroke:#181818;stroke-width:0.5;" width="4" x="460" y="52"/><text fill="#000000" font-family="sans-serif" font-size="14" font-weight="bold" lengthAdjust="spacing" textLength="30" x="427" y="73.9951">urls</text><text fill="#000000" font-family="sans-serif" font-size="14" lengthAdjust="spacing" textLength="4" x="427" y="90.292">&#160;</text><text fill="#000000" font-family="sans-serif" font-size="14" lengthAdjust="spacing" textLength="4" x="427" y="106.5889">&#160;</text></g><!--entity bf73d6ac6cffae671ab6b39648104497--><g id="elem_bf73d6ac6cffae671ab6b39648104497"><rect fill="#F1F1F1" height="78.8906" rx="2.5" ry="2.5" style="stroke:#181818;stroke-width:0.5;" width="70" x="26" y="41"/><rect fill="#F1F1F1" height="10" style="stroke:#181818;stroke-width:0.5;" width="15" x="76" y="46"/><rect fill="#F1F1F1" height="2" style="stroke:#181818;stroke-width:0.5;" width="4" x="74" y="48"/><rect fill="#F1F1F1" height="2" style="stroke:#181818;stroke-width:0.5;" width="4" x="74" y="52"/><text fill="#000000" font-family="sans-serif" font-size="14" font-weight="bold" lengthAdjust="spacing" textLength="30" x="41" y="73.9951">urls</text><text fill="#000000" font-family="sans-serif" font-size="14" lengthAdjust="spacing" textLength="4" x="41" y="90.292">&#160;</text><text fill="#000000" font-family="sans-serif" font-size="14" lengthAdjust="spacing" textLength="4" x="41" y="106.5889">&#160;</text></g><!--entity 3e23094b6a878c6a854f350fed1cd402--><g id="elem_3e23094b6a878c6a854f350fed1cd402"><rect fill="#F1F1F1" height="78.8906" rx="2.5" ry="2.5" style="stroke:#181818;stroke-width:0.5;" width="86" x="131" y="41"/><rect fill="#F1F1F1" height="10" style="stroke:#181818;stroke-width:0.5;" width="15" x="197" y="46"/><rect fill="#F1F1F1" height="2" style="stroke:#181818;stroke-width:0.5;" width="4" x="195" y="48"/><rect fill="#F1F1F1" height="2" style="stroke:#181818;stroke-width:0.5;" width="4" x="195" y="52"/><text fill="#000000" font-family="sans-serif" font-size="14" font-weight="bold" lengthAdjust="spacing" textLength="46" x="146" y="73.9951">views</text><text fill="#000000" font-family="sans-serif" font-size="14" lengthAdjust="spacing" textLength="4" x="146" y="90.292">&#160;</text><text fill="#000000" font-family="sans-serif" font-size="14" lengthAdjust="spacing" textLength="4" x="146" y="106.5889">&#160;</text></g><!--entity 5be4f56ed1e7c2103efb713f44ad7029--><g id="elem_5be4f56ed1e7c2103efb713f44ad7029"><rect fill="#F1F1F1" height="78.8906" rx="2.5" ry="2.5" style="stroke:#181818;stroke-width:0.5;" width="80" x="252" y="41"/><rect fill="#F1F1F1" height="10" style="stroke:#181818;stroke-width:0.5;" width="15" x="312" y="46"/><rect fill="#F1F1F1" height="2" style="stroke:#181818;stroke-width:0.5;" width="4" x="310" y="48"/><rect fill="#F1F1F1" height="2" style="stroke:#181818;stroke-width:0.5;" width="4" x="310" y="52"/><text fill="#000000" font-family="sans-serif" font-size="14" font-weight="bold" lengthAdjust="spacing" textLength="40" x="267" y="73.9951">tests</text><text fill="#000000" font-family="sans-serif" font-size="14" lengthAdjust="spacing" textLength="4" x="267" y="90.292">&#160;</text><text fill="#000000" font-family="sans-serif" font-size="14" lengthAdjust="spacing" textLength="4" x="267" y="106.5889">&#160;</text></g><!--entity c749e77a22c1db74463af6004f6b2fd9--><g id="elem_c749e77a22c1db74463af6004f6b2fd9"><rect fill="#F1F1F1" height="78.8906" rx="2.5" ry="2.5" style="stroke:#181818;stroke-width:0.5;" width="78" x="22" y="179.89"/><rect fill="#F1F1F1" height="10" style="stroke:#181818;stroke-width:0.5;" width="15" x="80" y="184.89"/><rect fill="#F1F1F1" height="2" style="stroke:#181818;stroke-width:0.5;" width="4" x="78" y="186.89"/><rect fill="#F1F1F1" height="2" style="stroke:#181818;stroke-width:0.5;" width="4" x="78" y="190.89"/><text fill="#000000" font-family="sans-serif" font-size="14" font-weight="bold" lengthAdjust="spacing" textLength="38" x="37" y="212.8851">apps</text><text fill="#000000" font-family="sans-serif" font-size="14" lengthAdjust="spacing" textLength="4" x="37" y="229.182">&#160;</text><text fill="#000000" font-family="sans-serif" font-size="14" lengthAdjust="spacing" textLength="4" x="37" y="245.4789">&#160;</text></g><!--entity bb538691e3c60279e6c34377b12a5ff4--><g id="elem_bb538691e3c60279e6c34377b12a5ff4"><rect fill="#F1F1F1" height="78.8906" rx="2.5" ry="2.5" style="stroke:#181818;stroke-width:0.5;" width="97" x="134.5" y="179.89"/><rect fill="#F1F1F1" height="10" style="stroke:#181818;stroke-width:0.5;" width="15" x="211.5" y="184.89"/><rect fill="#F1F1F1" height="2" style="stroke:#181818;stroke-width:0.5;" width="4" x="209.5" y="186.89"/><rect fill="#F1F1F1" height="2" style="stroke:#181818;stroke-width:0.5;" width="4" x="209.5" y="190.89"/><text fill="#000000" font-family="sans-serif" font-size="14" font-weight="bold" lengthAdjust="spacing" textLength="57" x="149.5" y="212.8851">models</text><text fill="#000000" font-family="sans-serif" font-size="14" lengthAdjust="spacing" textLength="4" x="149.5" y="229.182">&#160;</text><text fill="#000000" font-family="sans-serif" font-size="14" lengthAdjust="spacing" textLength="4" x="149.5" y="245.4789">&#160;</text></g><!--entity 6860faeccc8555520b2f0289b47391ff--><g id="elem_6860faeccc8555520b2f0289b47391ff"><rect fill="#F1F1F1" height="78.8906" rx="2.5" ry="2.5" style="stroke:#181818;stroke-width:0.5;" width="87" x="266.5" y="179.89"/><rect fill="#F1F1F1" height="10" style="stroke:#181818;stroke-width:0.5;" width="15" x="333.5" y="184.89"/><rect fill="#F1F1F1" height="2" style="stroke:#181818;stroke-width:0.5;" width="4" x="331.5" y="186.89"/><rect fill="#F1F1F1" height="2" style="stroke:#181818;stroke-width:0.5;" width="4" x="331.5" y="190.89"/><text fill="#000000" font-family="sans-serif" font-size="14" font-weight="bold" lengthAdjust="spacing" textLength="47" x="281.5" y="212.8851">admin</text><text fill="#000000" font-family="sans-serif" font-size="14" lengthAdjust="spacing" textLength="4" x="281.5" y="229.182">&#160;</text><text fill="#000000" font-family="sans-serif" font-size="14" lengthAdjust="spacing" textLength="4" x="281.5" y="245.4789">&#160;</text></g><!--SRC=[RP51RXin34NtSuf1bjwKaYXIEalG1KbHng2UyI1sam11xbx1Hc4KBXTSyU6H_78wdJ_MvNFPZjCkzakEFh-iifmklZL_-_4oosLM146EbO9w3QwGiwS0LQ1ZOCVvQxBpkfyttwwp1KOk36Hg8ZNq62WNzEX8be3dr-bm-FrskXmEqpJzdBuVNjcNkv2vku46eG5QqenMi-OG0u0Qfd-4sZar4YFhNPmuY9AcIbW28DOduODC7XDKL9B2nKRFs5E6xYrOGuWtydtnZsSqgsFFD2QTRQoLl2k7r16bCSHwGwz-kJwZnbYTMMAqq9GHAKad0EoaiRSxAll-JAhcL6Waa8mWSlNnK4pC6gBatl56hkVc_xcL2i5uZvcLF2h2S44iLP7J2AdVhMrTjh-v_040]--></g></svg>