<svg xmlns="http://www.w3.org/2000/svg" xmlns:xlink="http://www.w3.org/1999/xlink" contentStyleType="text/css" height="386px" preserveAspectRatio="none" style="width:1454px;height:386px;background:#FFFFFF;" version="1.1" viewBox="0 0 1454 386" width="1454px" zoomAndPan="magnify"><defs/><g><!--cluster 2199ace55d43ccccac9c1d7a9f4a5b7b--><g id="cluster_2199ace55d43ccccac9c1d7a9f4a5b7b"><polygon fill="none" points="16,16,26,6,368,6,368,265.19,358,275.19,16,275.19,16,16" style="stroke:#181818;stroke-width:1.0;"/><line style="stroke:#181818;stroke-width:1.0;" x1="358" x2="368" y1="16" y2="6"/><line style="stroke:#181818;stroke-width:1.0;" x1="16" x2="358" y1="16" y2="16"/><line style="stroke:#181818;stroke-width:1.0;" x1="358" x2="358" y1="16" y2="275.19"/><text fill="#000000" font-family="sans-serif" font-size="14" font-weight="bold" lengthAdjust="spacing" textLength="87" x="144.5" y="31.9951">Zookeeper</text></g><!--cluster 541661622185851c248b41bf0cea7ad0--><g id="cluster_541661622185851c248b41bf0cea7ad0"><polygon fill="none" points="392,16,402,6,706,6,706,265.19,696,275.19,392,275.19,392,16" style="stroke:#181818;stroke-width:1.0;"/><line style="stroke:#181818;stroke-width:1.0;" x1="696" x2="706" y1="16" y2="6"/><line style="stroke:#181818;stroke-width:1.0;" x1="392" x2="696" y1="16" y2="16"/><line style="stroke:#181818;stroke-width:1.0;" x1="696" x2="696" y1="16" y2="275.19"/><text fill="#000000" font-family="sans-serif" font-size="14" font-weight="bold" lengthAdjust="spacing" textLength="44" x="523" y="31.9951">Kafka</text></g><!--cluster 20cf03668622e64b154180b913ff6cbf--><g id="cluster_20cf03668622e64b154180b913ff6cbf"><polygon fill="none" points="730,24.15,740,14.15,878,14.15,878,265.19,868,275.19,730,275.19,730,24.15" style="stroke:#181818;stroke-width:1.0;"/><line style="stroke:#181818;stroke-width:1.0;" x1="868" x2="878" y1="24.15" y2="14.15"/><line style="stroke:#181818;stroke-width:1.0;" x1="730" x2="868" y1="24.15" y2="24.15"/><line style="stroke:#181818;stroke-width:1.0;" x1="868" x2="868" y1="24.15" y2="275.19"/><text fill="#000000" font-family="sans-serif" font-size="14" font-weight="bold" lengthAdjust="spacing" textLength="72" x="764" y="40.1451">Crossbar</text></g><!--cluster 53316ccaafa5eae3be911abca54ae597--><g id="cluster_53316ccaafa5eae3be911abca54ae597"><polygon fill="none" points="1241,24.15,1251,14.15,1437,14.15,1437,139.04,1427,149.04,1241,149.04,1241,24.15" style="stroke:#181818;stroke-width:1.0;"/><line style="stroke:#181818;stroke-width:1.0;" x1="1427" x2="1437" y1="24.15" y2="14.15"/><line style="stroke:#181818;stroke-width:1.0;" x1="1241" x2="1427" y1="24.15" y2="24.15"/><line style="stroke:#181818;stroke-width:1.0;" x1="1427" x2="1427" y1="24.15" y2="149.04"/><text fill="#000000" font-family="sans-serif" font-size="14" font-weight="bold" lengthAdjust="spacing" textLength="120" x="1275" y="40.1451">Test-consumer</text></g><!--cluster b43fdd98b1fd705ae4c3a10cf25aad8a--><g id="cluster_b43fdd98b1fd705ae4c3a10cf25aad8a"><polygon fill="none" points="902,24.15,912,14.15,1045,14.15,1045,265.19,1035,275.19,902,275.19,902,24.15" style="stroke:#181818;stroke-width:1.0;"/><line style="stroke:#181818;stroke-width:1.0;" x1="1035" x2="1045" y1="24.15" y2="14.15"/><line style="stroke:#181818;stroke-width:1.0;" x1="902" x2="1035" y1="24.15" y2="24.15"/><line style="stroke:#181818;stroke-width:1.0;" x1="1035" x2="1035" y1="24.15" y2="275.19"/><text fill="#000000" font-family="sans-serif" font-size="14" font-weight="bold" lengthAdjust="spacing" textLength="67" x="936" y="40.1451">Backend</text></g><!--cluster aca33b9c046b2a50b8c3c54cc0380de8--><g id="cluster_aca33b9c046b2a50b8c3c54cc0380de8"><polygon fill="none" points="1069,24.15,1079,14.15,1217,14.15,1217,265.19,1207,275.19,1069,275.19,1069,24.15" style="stroke:#181818;stroke-width:1.0;"/><line style="stroke:#181818;stroke-width:1.0;" x1="1207" x2="1217" y1="24.15" y2="14.15"/><line style="stroke:#181818;stroke-width:1.0;" x1="1069" x2="1207" y1="24.15" y2="24.15"/><line style="stroke:#181818;stroke-width:1.0;" x1="1207" x2="1207" y1="24.15" y2="275.19"/><text fill="#000000" font-family="sans-serif" font-size="14" font-weight="bold" lengthAdjust="spacing" textLength="72" x="1103" y="40.1451">Frontend</text></g><!--entity e08de8ee1b7bd0e45201edaf78ba4697--><g id="elem_e08de8ee1b7bd0e45201edaf78ba4697"><rect fill="#F1F1F1" height="95.1875" rx="2.5" ry="2.5" style="stroke:#181818;stroke-width:0.5;" width="321" x="31.5" y="46"/><rect fill="#F1F1F1" height="10" style="stroke:#181818;stroke-width:0.5;" width="15" x="332.5" y="51"/><rect fill="#F1F1F1" height="2" style="stroke:#181818;stroke-width:0.5;" width="4" x="330.5" y="53"/><rect fill="#F1F1F1" height="2" style="stroke:#181818;stroke-width:0.5;" width="4" x="330.5" y="57"/><text fill="#000000" font-family="sans-serif" font-size="14" font-weight="bold" lengthAdjust="spacing" textLength="85" x="46.5" y="78.9951">zookeeper</text><text fill="#000000" font-family="sans-serif" font-size="14" lengthAdjust="spacing" textLength="4" x="46.5" y="95.292">&#160;</text><text fill="#000000" font-family="sans-serif" font-size="14" lengthAdjust="spacing" textLength="281" x="46.5" y="111.5889">image: confluentinc/cp-zookeeper:latest</text><text fill="#000000" font-family="sans-serif" font-size="14" lengthAdjust="spacing" textLength="4" x="46.5" y="127.8857">&#160;</text></g><!--entity ece32d11de04ea9b6e1403bb711bc958--><g id="elem_ece32d11de04ea9b6e1403bb711bc958"><ellipse cx="192" cy="230.19" fill="#F1F1F1" rx="8" ry="8" style="stroke:#181818;stroke-width:0.5;"/><text fill="#000000" font-family="sans-serif" font-size="14" lengthAdjust="spacing" textLength="36" x="174" y="260.1851">2181</text></g><!--entity 349a83bb472f89aafc32c286b36aadbc--><g id="elem_349a83bb472f89aafc32c286b36aadbc"><rect fill="#F1F1F1" height="95.1875" rx="2.5" ry="2.5" style="stroke:#181818;stroke-width:0.5;" width="282" x="408" y="46"/><rect fill="#F1F1F1" height="10" style="stroke:#181818;stroke-width:0.5;" width="15" x="670" y="51"/><rect fill="#F1F1F1" height="2" style="stroke:#181818;stroke-width:0.5;" width="4" x="668" y="53"/><rect fill="#F1F1F1" height="2" style="stroke:#181818;stroke-width:0.5;" width="4" x="668" y="57"/><text fill="#000000" font-family="sans-serif" font-size="14" font-weight="bold" lengthAdjust="spacing" textLength="42" x="423" y="78.9951">kafka</text><text fill="#000000" font-family="sans-serif" font-size="14" lengthAdjust="spacing" textLength="4" x="423" y="95.292">&#160;</text><text fill="#000000" font-family="sans-serif" font-size="14" lengthAdjust="spacing" textLength="242" x="423" y="111.5889">image: confluentinc/cp-kafka:latest</text><text fill="#000000" font-family="sans-serif" font-size="14" lengthAdjust="spacing" textLength="4" x="423" y="127.8857">&#160;</text></g><!--entity 6adbba7d1bab26e0203b790ae0adb380--><g id="elem_6adbba7d1bab26e0203b790ae0adb380"><ellipse cx="549" cy="230.19" fill="#F1F1F1" rx="8" ry="8" style="stroke:#181818;stroke-width:0.5;"/><text fill="#000000" font-family="sans-serif" font-size="14" lengthAdjust="spacing" textLength="45" x="526.5" y="260.1851">29092</text></g><!--entity 56ee290f3cc3da12dbae976508f89bbc--><g id="elem_56ee290f3cc3da12dbae976508f89bbc"><rect fill="#F1F1F1" height="78.8906" rx="2.5" ry="2.5" style="stroke:#181818;stroke-width:0.5;" width="110" x="749" y="54.15"/><rect fill="#F1F1F1" height="10" style="stroke:#181818;stroke-width:0.5;" width="15" x="839" y="59.15"/><rect fill="#F1F1F1" height="2" style="stroke:#181818;stroke-width:0.5;" width="4" x="837" y="61.15"/><rect fill="#F1F1F1" height="2" style="stroke:#181818;stroke-width:0.5;" width="4" x="837" y="65.15"/><text fill="#000000" font-family="sans-serif" font-size="14" font-weight="bold" lengthAdjust="spacing" textLength="70" x="764" y="87.1451">crossbar</text><text fill="#000000" font-family="sans-serif" font-size="14" lengthAdjust="spacing" textLength="4" x="764" y="103.442">&#160;</text><text fill="#000000" font-family="sans-serif" font-size="14" lengthAdjust="spacing" textLength="4" x="764" y="119.7389">&#160;</text></g><!--entity 3b73616954b85c6c8ee445f56434a631--><g id="elem_3b73616954b85c6c8ee445f56434a631"><ellipse cx="804" cy="230.19" fill="#F1F1F1" rx="8" ry="8" style="stroke:#181818;stroke-width:0.5;"/><text fill="#000000" font-family="sans-serif" font-size="14" lengthAdjust="spacing" textLength="36" x="786" y="260.1851">8082</text></g><!--entity 5d64531e4b3bdc4c4a392e002b66e0dd--><g id="elem_5d64531e4b3bdc4c4a392e002b66e0dd"><rect fill="#F1F1F1" height="78.8906" rx="2.5" ry="2.5" style="stroke:#181818;stroke-width:0.5;" width="156" x="1261" y="54.15"/><rect fill="#F1F1F1" height="10" style="stroke:#181818;stroke-width:0.5;" width="15" x="1397" y="59.15"/><rect fill="#F1F1F1" height="2" style="stroke:#181818;stroke-width:0.5;" width="4" x="1395" y="61.15"/><rect fill="#F1F1F1" height="2" style="stroke:#181818;stroke-width:0.5;" width="4" x="1395" y="65.15"/><text fill="#000000" font-family="sans-serif" font-size="14" font-weight="bold" lengthAdjust="spacing" textLength="116" x="1276" y="87.1451">test-consumer</text><text fill="#000000" font-family="sans-serif" font-size="14" lengthAdjust="spacing" textLength="4" x="1276" y="103.442">&#160;</text><text fill="#000000" font-family="sans-serif" font-size="14" lengthAdjust="spacing" textLength="4" x="1276" y="119.7389">&#160;</text></g><!--entity 3c9143a55bc234f7475461bb6bcda7ef--><g id="elem_3c9143a55bc234f7475461bb6bcda7ef"><rect fill="#F1F1F1" height="78.8906" rx="2.5" ry="2.5" style="stroke:#181818;stroke-width:0.5;" width="107" x="920.5" y="54.15"/><rect fill="#F1F1F1" height="10" style="stroke:#181818;stroke-width:0.5;" width="15" x="1007.5" y="59.15"/><rect fill="#F1F1F1" height="2" style="stroke:#181818;stroke-width:0.5;" width="4" x="1005.5" y="61.15"/><rect fill="#F1F1F1" height="2" style="stroke:#181818;stroke-width:0.5;" width="4" x="1005.5" y="65.15"/><text fill="#000000" font-family="sans-serif" font-size="14" font-weight="bold" lengthAdjust="spacing" textLength="67" x="935.5" y="87.1451">backend</text><text fill="#000000" font-family="sans-serif" font-size="14" lengthAdjust="spacing" textLength="4" x="935.5" y="103.442">&#160;</text><text fill="#000000" font-family="sans-serif" font-size="14" lengthAdjust="spacing" textLength="4" x="935.5" y="119.7389">&#160;</text></g><!--entity d91273f2a530d0fbd7505db644dca00c--><g id="elem_d91273f2a530d0fbd7505db644dca00c"><ellipse cx="974" cy="230.19" fill="#F1F1F1" rx="8" ry="8" style="stroke:#181818;stroke-width:0.5;"/><text fill="#000000" font-family="sans-serif" font-size="14" lengthAdjust="spacing" textLength="36" x="956" y="260.1851">8000</text></g><!--entity 2df658e42e00edd2554ae5f7b7924076--><g id="elem_2df658e42e00edd2554ae5f7b7924076"><rect fill="#F1F1F1" height="78.8906" rx="2.5" ry="2.5" style="stroke:#181818;stroke-width:0.5;" width="109" x="1088.5" y="54.15"/><rect fill="#F1F1F1" height="10" style="stroke:#181818;stroke-width:0.5;" width="15" x="1177.5" y="59.15"/><rect fill="#F1F1F1" height="2" style="stroke:#181818;stroke-width:0.5;" width="4" x="1175.5" y="61.15"/><rect fill="#F1F1F1" height="2" style="stroke:#181818;stroke-width:0.5;" width="4" x="1175.5" y="65.15"/><text fill="#000000" font-family="sans-serif" font-size="14" font-weight="bold" lengthAdjust="spacing" textLength="69" x="1103.5" y="87.1451">frontend</text><text fill="#000000" font-family="sans-serif" font-size="14" lengthAdjust="spacing" textLength="4" x="1103.5" y="103.442">&#160;</text><text fill="#000000" font-family="sans-serif" font-size="14" lengthAdjust="spacing" textLength="4" x="1103.5" y="119.7389">&#160;</text></g><!--entity 5013a57ca40d2232cb2d4778d9f1035f--><g id="elem_5013a57ca40d2232cb2d4778d9f1035f"><ellipse cx="1143" cy="230.19" fill="#F1F1F1" rx="8" ry="8" style="stroke:#181818;stroke-width:0.5;"/><text fill="#000000" font-family="sans-serif" font-size="14" lengthAdjust="spacing" textLength="36" x="1125" y="260.1851">3000</text></g><!--entity 09459082643d79967357df725fa5f7f3--><g id="elem_09459082643d79967357df725fa5f7f3"><ellipse cx="192" cy="348.19" fill="#F1F1F1" rx="8" ry="8" style="stroke:#181818;stroke-width:0.5;"/><text fill="#000000" font-family="sans-serif" font-size="14" lengthAdjust="spacing" textLength="45" x="169.5" y="378.1851">22181</text></g><!--entity 51644e9b83b8cfce8c3c8531f9c1db78--><g id="elem_51644e9b83b8cfce8c3c8531f9c1db78"><ellipse cx="549" cy="348.19" fill="#F1F1F1" rx="8" ry="8" style="stroke:#181818;stroke-width:0.5;"/><text fill="#000000" font-family="sans-serif" font-size="14" lengthAdjust="spacing" textLength="45" x="526.5" y="378.1851">29092</text></g><!--entity 0883b8225d4da56f748ff418d84dc8dc--><g id="elem_0883b8225d4da56f748ff418d84dc8dc"><ellipse cx="804" cy="348.19" fill="#F1F1F1" rx="8" ry="8" style="stroke:#181818;stroke-width:0.5;"/><text fill="#000000" font-family="sans-serif" font-size="14" lengthAdjust="spacing" textLength="36" x="786" y="378.1851">8082</text></g><!--entity 1624c420083928ef3e240dd88f2e52f0--><g id="elem_1624c420083928ef3e240dd88f2e52f0"><ellipse cx="974" cy="348.19" fill="#F1F1F1" rx="8" ry="8" style="stroke:#181818;stroke-width:0.5;"/><text fill="#000000" font-family="sans-serif" font-size="14" lengthAdjust="spacing" textLength="36" x="956" y="378.1851">8000</text></g><!--entity f078924e338e21558f85fe59f3c5eab4--><g id="elem_f078924e338e21558f85fe59f3c5eab4"><ellipse cx="1143" cy="348.19" fill="#F1F1F1" rx="8" ry="8" style="stroke:#181818;stroke-width:0.5;"/><text fill="#000000" font-family="sans-serif" font-size="14" lengthAdjust="spacing" textLength="36" x="1125" y="378.1851">3000</text></g><!--link e08de8ee1b7bd0e45201edaf78ba4697 to ece32d11de04ea9b6e1403bb711bc958--><g id="link_e08de8ee1b7bd0e45201edaf78ba4697_ece32d11de04ea9b6e1403bb711bc958"><path codeLine="56" d="M192,141.67 C192,171.08 192,206.18 192,221.45 " fill="none" id="e08de8ee1b7bd0e45201edaf78ba4697-ece32d11de04ea9b6e1403bb711bc958" style="stroke:#181818;stroke-width:1.0;"/></g><!--link ece32d11de04ea9b6e1403bb711bc958 to 09459082643d79967357df725fa5f7f3--><g id="link_ece32d11de04ea9b6e1403bb711bc958_09459082643d79967357df725fa5f7f3"><path codeLine="57" d="M192,239.16 C192,260.46 192,318.46 192,339.47 " fill="none" id="ece32d11de04ea9b6e1403bb711bc958-09459082643d79967357df725fa5f7f3" style="stroke:#181818;stroke-width:1.0;"/></g><!--link 349a83bb472f89aafc32c286b36aadbc to 6adbba7d1bab26e0203b790ae0adb380--><g id="link_349a83bb472f89aafc32c286b36aadbc_6adbba7d1bab26e0203b790ae0adb380"><path codeLine="58" d="M549,141.67 C549,171.08 549,206.18 549,221.45 " fill="none" id="349a83bb472f89aafc32c286b36aadbc-6adbba7d1bab26e0203b790ae0adb380" style="stroke:#181818;stroke-width:1.0;"/></g><!--link 6adbba7d1bab26e0203b790ae0adb380 to 51644e9b83b8cfce8c3c8531f9c1db78--><g id="link_6adbba7d1bab26e0203b790ae0adb380_51644e9b83b8cfce8c3c8531f9c1db78"><path codeLine="59" d="M549,239.16 C549,260.46 549,318.46 549,339.47 " fill="none" id="6adbba7d1bab26e0203b790ae0adb380-51644e9b83b8cfce8c3c8531f9c1db78" style="stroke:#181818;stroke-width:1.0;"/></g><!--link 56ee290f3cc3da12dbae976508f89bbc to 3b73616954b85c6c8ee445f56434a631--><g id="link_56ee290f3cc3da12dbae976508f89bbc_3b73616954b85c6c8ee445f56434a631"><path codeLine="60" d="M804,133.53 C804,164.27 804,204.68 804,221.42 " fill="none" id="56ee290f3cc3da12dbae976508f89bbc-3b73616954b85c6c8ee445f56434a631" style="stroke:#181818;stroke-width:1.0;"/></g><!--link 3b73616954b85c6c8ee445f56434a631 to 0883b8225d4da56f748ff418d84dc8dc--><g id="link_3b73616954b85c6c8ee445f56434a631_0883b8225d4da56f748ff418d84dc8dc"><path codeLine="61" d="M804,239.16 C804,260.46 804,318.46 804,339.47 " fill="none" id="3b73616954b85c6c8ee445f56434a631-0883b8225d4da56f748ff418d84dc8dc" style="stroke:#181818;stroke-width:1.0;"/></g><!--link 3c9143a55bc234f7475461bb6bcda7ef to d91273f2a530d0fbd7505db644dca00c--><g id="link_3c9143a55bc234f7475461bb6bcda7ef_d91273f2a530d0fbd7505db644dca00c"><path codeLine="62" d="M974,133.53 C974,164.27 974,204.68 974,221.42 " fill="none" id="3c9143a55bc234f7475461bb6bcda7ef-d91273f2a530d0fbd7505db644dca00c" style="stroke:#181818;stroke-width:1.0;"/></g><!--link d91273f2a530d0fbd7505db644dca00c to 1624c420083928ef3e240dd88f2e52f0--><g id="link_d91273f2a530d0fbd7505db644dca00c_1624c420083928ef3e240dd88f2e52f0"><path codeLine="63" d="M974,239.16 C974,260.46 974,318.46 974,339.47 " fill="none" id="d91273f2a530d0fbd7505db644dca00c-1624c420083928ef3e240dd88f2e52f0" style="stroke:#181818;stroke-width:1.0;"/></g><!--link 2df658e42e00edd2554ae5f7b7924076 to 5013a57ca40d2232cb2d4778d9f1035f--><g id="link_2df658e42e00edd2554ae5f7b7924076_5013a57ca40d2232cb2d4778d9f1035f"><path codeLine="64" d="M1143,133.53 C1143,164.27 1143,204.68 1143,221.42 " fill="none" id="2df658e42e00edd2554ae5f7b7924076-5013a57ca40d2232cb2d4778d9f1035f" style="stroke:#181818;stroke-width:1.0;"/></g><!--link 5013a57ca40d2232cb2d4778d9f1035f to f078924e338e21558f85fe59f3c5eab4--><g id="link_5013a57ca40d2232cb2d4778d9f1035f_f078924e338e21558f85fe59f3c5eab4"><path codeLine="65" d="M1143,239.16 C1143,260.46 1143,318.46 1143,339.47 " fill="none" id="5013a57ca40d2232cb2d4778d9f1035f-f078924e338e21558f85fe59f3c5eab4" style="stroke:#181818;stroke-width:1.0;"/></g><!--SRC=[XLIxRXn74CptAmwCR0A4Unuz3uKIeCIf8maE-ZK2GVAEu9qWmuR_tRtBuq77mBFfz5PNLLStFJuUVZpT_tM__xRi3sgxco-7muFPixtSxEYuYw5t4aFKdCG_aYv1A_MH2Rdoxfzb9uUdvyFUzgUTGLDhPi5V52nZX61AepQcN7hTVLrkR_z-Qt1xkoptJ_JDFZZ4VZn-TuZxlVmcptUNcW-FTBBZQLd-N7xvTNSJGmiRBnDBKKDGWspKkLZ8a9Xh22mTs_BlMSxlD1ve-mLpA2MKw1ZOC4ZCZNFW0M9KIU5QIigTcWFc6aVhH4DIbDWAfqAaB9kKXnNyVsHix-ybTEXn8rGSXwbgOE9O3A8Bg1t8m1zIWuk6Jo-7uv7fF16G0QcKvagiP0wkgm7taCOemkDQ1XOpxpXyU4afH6MoNWj2SrLybY5d_5N9cMM3zahIAILthMFcXbB4fvip3YmvPIefN4Z-uHhlt83ZzwTpTZ2bK3moD0YDBB7r48Y5C9EXf-6QgPQCALZcn2fPCgKU3I1oSMzKDwQddvkSwRuH-4ZoO7lTMdDEGxKt3aCh85cMHC6TY-ZJQ_Hkrj93JeJ84bCUDLVC9J0N5gLgOslDh_1N7W5itRI7MDE8X0aK1cj5GEMIime1o8NYvvV3_lJ6aOHIuYwG2_klm4sIO1O1dxslqJN7gADWixnQOgeHDnD7zSJ43BLi7CSP_oUIwOqaGd29LIY3nkXXvgYvrgPz14WudEGMpykAGS_OFGO-QQszbvgmwgWHVPoZZlGkpHXShtNsfMaon5OrpGSwreF1jLt72jfQ5wFV5IKixdaRmuEipJrhAjS6-zPw8290yqmq6ybSisfh8nh60TTA1zJcfbXApM90zAZZyC3v4dWEEI_JCtMdT_CBColOKAOcJk_CYZAz5BE23MKweUcnM56c1s5MyEhBRFxJdLnHfeitAzXGfkcQxjxcxco_PWKRoYox_m40]--></g></svg>